<svg width="24" height="24" viewBox="0 0 24 24" fill="none" xmlns="http://www.w3.org/2000/svg">
<path d="M0.5 9.5H4.059" stroke="#1A202C" stroke-linecap="round" stroke-linejoin="round"/>
<path d="M19.9355 9.5H23.4995" stroke="#1A202C" stroke-linecap="round" stroke-linejoin="round"/>
<path d="M11.998 16.5C16.4163 16.5 19.998 12.9183 19.998 8.5C19.998 4.08172 16.4163 0.5 11.998 0.5C7.57977 0.5 3.99805 4.08172 3.99805 8.5C3.99805 12.9183 7.57977 16.5 11.998 16.5Z" stroke="#1A202C" stroke-linecap="round" stroke-linejoin="round"/>
<path d="M12 19V23.5" stroke="#1A202C" stroke-linecap="round" stroke-linejoin="round"/>
<path d="M1.5 23.5H22.5" stroke="#1A202C" stroke-linecap="round" stroke-linejoin="round"/>
<path d="M1.54785 9.5C1.80202 12.0952 3.01274 14.5029 4.94436 16.2546C6.87597 18.0063 9.39027 18.9765 11.9979 18.9765C14.6054 18.9765 17.1197 18.0063 19.0513 16.2546C20.983 14.5029 22.1937 12.0952 22.4479 9.5" stroke="#1A202C" stroke-linecap="round" stroke-linejoin="round"/>
</svg>
