<svg width="24" height="24" viewBox="0 0 24 24" fill="none" xmlns="http://www.w3.org/2000/svg">
<g id="noun_Electronics_3730190 1">
<g id="Vector">
<path d="M17.4145 0.355469H6.85455C5.82909 0.355469 5 1.19001 5 2.21001V19.0046C5 20.03 5.83455 20.8591 6.85455 20.8591H7.03455L7.34 23.2427C7.37273 23.4773 7.56909 23.6518 7.80364 23.6518H9.59273C9.82727 23.6518 10.0236 23.4773 10.0564 23.2427L10.3618 20.8591H13.9182L14.2236 23.2427C14.2564 23.4773 14.4527 23.6518 14.6873 23.6518H16.4764C16.7109 23.6518 16.9073 23.4773 16.94 23.2427L17.2455 20.8591H17.4255C18.4509 20.8591 19.28 20.0246 19.28 19.0046V2.21001C19.2691 1.18456 18.44 0.355469 17.4145 0.355469ZM6.85455 1.28274H17.4145C17.9218 1.28274 18.3364 1.69729 18.3364 2.20456V15.4373H5.93273V2.21001C5.93273 1.69729 6.34727 1.28274 6.85455 1.28274ZM9.17818 22.7191H8.21273L7.97273 20.8591H9.41818L9.17818 22.7191ZM16.0564 22.7191H15.0909L14.8509 20.8591H16.2964L16.0564 22.7191ZM17.4145 19.9264H6.85455C6.34727 19.9264 5.93273 19.5118 5.93273 19.0046V16.3755H18.3418V19.0046C18.3364 19.5118 17.9218 19.9264 17.4145 19.9264Z" fill="#1A202C"/>
<path d="M13.0398 5.32455H13.8798C14.0816 6.03364 14.7307 6.55728 15.5053 6.55728C16.438 6.55728 17.2016 5.79364 17.2016 4.86091C17.2016 3.92273 16.438 3.16455 15.5053 3.16455C14.7307 3.16455 14.0871 3.68819 13.8798 4.39728H13.0398C12.7834 4.39728 12.5762 4.60455 12.5762 4.86091C12.5762 5.11728 12.7834 5.32455 13.0398 5.32455ZM15.5053 4.09182C15.9253 4.09182 16.2689 4.43546 16.2689 4.85546C16.2689 5.27546 15.9253 5.6191 15.5053 5.6191C15.0853 5.6191 14.7416 5.27546 14.7416 4.85546C14.7362 4.43546 15.0798 4.09182 15.5053 4.09182Z" fill="#1A202C"/>
<path d="M13.0398 9.97183H13.8798C14.0816 10.6809 14.7307 11.2046 15.5053 11.2046C16.438 11.2046 17.2016 10.4409 17.2016 9.50819C17.2016 8.57547 16.438 7.81183 15.5053 7.81183C14.7307 7.81183 14.0871 8.33546 13.8798 9.04456H13.0398C12.7834 9.04456 12.5762 9.25183 12.5762 9.50819C12.5762 9.76456 12.7834 9.97183 13.0398 9.97183ZM15.5053 8.74456C15.9253 8.74456 16.2689 9.08819 16.2689 9.50819C16.2689 9.92819 15.9253 10.2718 15.5053 10.2718C15.0853 10.2718 14.7416 9.92819 14.7416 9.50819C14.7362 9.08274 15.0798 8.74456 15.5053 8.74456Z" fill="#1A202C"/>
<path d="M7.5365 4.37002H8.8074C9.06377 4.37002 9.27104 4.16275 9.27104 3.90638C9.27104 3.65002 9.06377 3.44275 8.8074 3.44275H7.5365C7.28013 3.44275 7.07286 3.65002 7.07286 3.90638C7.0674 4.16275 7.27468 4.37002 7.5365 4.37002Z" fill="#1A202C"/>
<path d="M7.5365 6.27908H8.8074C9.06377 6.27908 9.27104 6.07181 9.27104 5.81544C9.27104 5.55908 9.06377 5.35181 8.8074 5.35181H7.5365C7.28013 5.35181 7.07286 5.55908 7.07286 5.81544C7.0674 6.06635 7.27468 6.27908 7.5365 6.27908Z" fill="#1A202C"/>
<path d="M7.5365 8.18277H8.8074C9.06377 8.18277 9.27104 7.97549 9.27104 7.71913C9.27104 7.46277 9.06377 7.25549 8.8074 7.25549H7.5365C7.28013 7.25549 7.07286 7.46277 7.07286 7.71913C7.0674 7.97549 7.27468 8.18277 7.5365 8.18277Z" fill="#1A202C"/>
<path d="M17.4145 0.355469H6.85455C5.82909 0.355469 5 1.19001 5 2.21001V19.0046C5 20.03 5.83455 20.8591 6.85455 20.8591H7.03455L7.34 23.2427C7.37273 23.4773 7.56909 23.6518 7.80364 23.6518H9.59273C9.82727 23.6518 10.0236 23.4773 10.0564 23.2427L10.3618 20.8591H13.9182L14.2236 23.2427C14.2564 23.4773 14.4527 23.6518 14.6873 23.6518H16.4764C16.7109 23.6518 16.9073 23.4773 16.94 23.2427L17.2455 20.8591H17.4255C18.4509 20.8591 19.28 20.0246 19.28 19.0046V2.21001C19.2691 1.18456 18.44 0.355469 17.4145 0.355469ZM6.85455 1.28274H17.4145C17.9218 1.28274 18.3364 1.69729 18.3364 2.20456V15.4373H5.93273V2.21001C5.93273 1.69729 6.34727 1.28274 6.85455 1.28274ZM9.17818 22.7191H8.21273L7.97273 20.8591H9.41818L9.17818 22.7191ZM16.0564 22.7191H15.0909L14.8509 20.8591H16.2964L16.0564 22.7191ZM17.4145 19.9264H6.85455C6.34727 19.9264 5.93273 19.5118 5.93273 19.0046V16.3755H18.3418V19.0046C18.3364 19.5118 17.9218 19.9264 17.4145 19.9264Z" stroke="#1A202C" stroke-width="0.1"/>
<path d="M13.0398 5.32455H13.8798C14.0816 6.03364 14.7307 6.55728 15.5053 6.55728C16.438 6.55728 17.2016 5.79364 17.2016 4.86091C17.2016 3.92273 16.438 3.16455 15.5053 3.16455C14.7307 3.16455 14.0871 3.68819 13.8798 4.39728H13.0398C12.7834 4.39728 12.5762 4.60455 12.5762 4.86091C12.5762 5.11728 12.7834 5.32455 13.0398 5.32455ZM15.5053 4.09182C15.9253 4.09182 16.2689 4.43546 16.2689 4.85546C16.2689 5.27546 15.9253 5.6191 15.5053 5.6191C15.0853 5.6191 14.7416 5.27546 14.7416 4.85546C14.7362 4.43546 15.0798 4.09182 15.5053 4.09182Z" stroke="#1A202C" stroke-width="0.1"/>
<path d="M13.0398 9.97183H13.8798C14.0816 10.6809 14.7307 11.2046 15.5053 11.2046C16.438 11.2046 17.2016 10.4409 17.2016 9.50819C17.2016 8.57547 16.438 7.81183 15.5053 7.81183C14.7307 7.81183 14.0871 8.33546 13.8798 9.04456H13.0398C12.7834 9.04456 12.5762 9.25183 12.5762 9.50819C12.5762 9.76456 12.7834 9.97183 13.0398 9.97183ZM15.5053 8.74456C15.9253 8.74456 16.2689 9.08819 16.2689 9.50819C16.2689 9.92819 15.9253 10.2718 15.5053 10.2718C15.0853 10.2718 14.7416 9.92819 14.7416 9.50819C14.7362 9.08274 15.0798 8.74456 15.5053 8.74456Z" stroke="#1A202C" stroke-width="0.1"/>
<path d="M7.5365 4.37002H8.8074C9.06377 4.37002 9.27104 4.16275 9.27104 3.90638C9.27104 3.65002 9.06377 3.44275 8.8074 3.44275H7.5365C7.28013 3.44275 7.07286 3.65002 7.07286 3.90638C7.0674 4.16275 7.27468 4.37002 7.5365 4.37002Z" stroke="#1A202C" stroke-width="0.1"/>
<path d="M7.5365 6.27908H8.8074C9.06377 6.27908 9.27104 6.07181 9.27104 5.81544C9.27104 5.55908 9.06377 5.35181 8.8074 5.35181H7.5365C7.28013 5.35181 7.07286 5.55908 7.07286 5.81544C7.0674 6.06635 7.27468 6.27908 7.5365 6.27908Z" stroke="#1A202C" stroke-width="0.1"/>
<path d="M7.5365 8.18277H8.8074C9.06377 8.18277 9.27104 7.97549 9.27104 7.71913C9.27104 7.46277 9.06377 7.25549 8.8074 7.25549H7.5365C7.28013 7.25549 7.07286 7.46277 7.07286 7.71913C7.0674 7.97549 7.27468 8.18277 7.5365 8.18277Z" stroke="#1A202C" stroke-width="0.1"/>
</g>
</g>
</svg>
