<svg width="24" height="24" viewBox="0 0 24 24" fill="none" xmlns="http://www.w3.org/2000/svg">
<path d="M2 13.9922L5.973 13.9992" stroke="#1A202C" stroke-miterlimit="10" stroke-linecap="round" stroke-linejoin="round"/>
<path d="M22.0003 13.9922L18.0273 13.9992" stroke="#1A202C" stroke-miterlimit="10" stroke-linecap="round" stroke-linejoin="round"/>
<path d="M14 2C13.9995 6.01089 15.2117 9.92036 17.4659 13.2199C17.8085 13.7214 17.9402 14.3427 17.791 14.9315L16.6312 19.5088C16.311 20.7726 17.2662 22 18.57 22H20C21.1046 22 22 21.1046 22 20V4C22 2.89543 21.1046 2 20 2H4C2.89543 2 2 2.89543 2 4V20C2 21.1046 2.89543 22 4 22H5.43005C6.73381 22 7.68901 20.7726 7.36879 19.5088L6.20903 14.9315C6.05984 14.3427 6.19146 13.7214 6.53411 13.2199C8.78835 9.92036 10.0005 6.01089 10 2" stroke="#1A202C" stroke-miterlimit="10" stroke-linecap="round" stroke-linejoin="round"/>
</svg>
