<svg width="24" height="24" viewBox="0 0 24 24" fill="none" xmlns="http://www.w3.org/2000/svg">
<g id="body-care-toothbrush-paste 1" clip-path="url(#clip0)">
<g id="Group">
<path id="Vector" d="M8.49958 20.5H2.49958L0.499577 1.05001C0.492567 0.980268 0.500298 0.909836 0.522267 0.843278C0.544236 0.776721 0.579953 0.715526 0.6271 0.663664C0.674248 0.611802 0.731772 0.570431 0.795941 0.542237C0.860109 0.514043 0.929489 0.499655 0.999577 0.500006H9.99958C10.0697 0.499655 10.139 0.514043 10.2032 0.542237C10.2674 0.570431 10.3249 0.611802 10.3721 0.663664C10.4192 0.715526 10.4549 0.776721 10.4769 0.843278C10.4989 0.909836 10.5066 0.980268 10.4996 1.05001L8.49958 20.5Z" stroke="#1A202C" stroke-linecap="round" stroke-linejoin="round"/>
<path id="Vector_2" d="M2.5 20.5H8.5V22.5C8.5 22.7652 8.39464 23.0196 8.20711 23.2071C8.01957 23.3946 7.76522 23.5 7.5 23.5H3.5C3.23478 23.5 2.98043 23.3946 2.79289 23.2071C2.60536 23.0196 2.5 22.7652 2.5 22.5V20.5Z" stroke="#1A202C" stroke-linecap="round" stroke-linejoin="round"/>
<path id="Vector_3" d="M0.753906 3.5H10.2459" stroke="#1A202C" stroke-linecap="round" stroke-linejoin="round"/>
<path id="Vector_4" d="M23.5 2C23.5 1.17157 22.8284 0.5 22 0.5C21.1716 0.5 20.5 1.17157 20.5 2V22C20.5 22.8284 21.1716 23.5 22 23.5C22.8284 23.5 23.5 22.8284 23.5 22V2Z" stroke="#1A202C" stroke-linecap="round" stroke-linejoin="round"/>
<path id="Vector_5" d="M18.5 1.5H15.5" stroke="#1A202C" stroke-linecap="round" stroke-linejoin="round"/>
<path id="Vector_6" d="M18.5 3.5H15.5" stroke="#1A202C" stroke-linecap="round" stroke-linejoin="round"/>
<path id="Vector_7" d="M18.5 5.5H15.5" stroke="#1A202C" stroke-linecap="round" stroke-linejoin="round"/>
<path id="Vector_8" d="M18.5 7.5H15.5" stroke="#1A202C" stroke-linecap="round" stroke-linejoin="round"/>
</g>
</g>
<defs>
<clipPath id="clip0">
<rect width="24" height="24" fill="white"/>
</clipPath>
</defs>
</svg>
