<svg width="24" height="24" viewBox="0 0 24 24" fill="none" xmlns="http://www.w3.org/2000/svg">
<g id="bathroom-hair-dryer 1">
<g id="Group">
<path id="Vector" d="M6 8.5L1 9.5V2.5L6 3.5V8.5Z" stroke="#1A202C" stroke-linecap="round" stroke-linejoin="round"/>
<path id="Vector_2" d="M6 3.49999L18 1.52699C18.6283 1.45787 19.2641 1.52188 19.866 1.71486C20.4679 1.90784 21.0224 2.22546 21.4934 2.64703C21.9644 3.0686 22.3412 3.58466 22.5995 4.16159C22.8577 4.73853 22.9915 5.36339 22.9921 5.99547C22.9928 6.62756 22.8602 7.25269 22.6032 7.83014C22.3461 8.40759 21.9703 8.92441 21.5001 9.34692C21.03 9.76944 20.4761 10.0882 19.8746 10.2824C19.2731 10.4766 18.6374 10.5419 18.009 10.474L6 8.49999" stroke="#1A202C" stroke-linecap="round" stroke-linejoin="round"/>
<path id="Vector_3" d="M21.9694 8.86719L21.0764 17.5842C21.0556 17.8348 20.9411 18.0683 20.7557 18.2382C20.5704 18.4082 20.3279 18.5021 20.0764 18.5012H17.0874C16.9488 18.5017 16.8116 18.4733 16.6846 18.418C16.5575 18.3626 16.4433 18.2814 16.3493 18.1796C16.2553 18.0777 16.1834 17.9575 16.1383 17.8264C16.0933 17.6953 16.0759 17.5563 16.0874 17.4182L16.8484 10.2852" stroke="#1A202C" stroke-linecap="round" stroke-linejoin="round"/>
<path id="Vector_4" d="M22.5 22.5H20.5C19.9696 22.5 19.4609 22.2893 19.0858 21.9142C18.7107 21.5391 18.5 21.0304 18.5 20.5V18.5" stroke="#1A202C" stroke-linecap="round" stroke-linejoin="round"/>
</g>
</g>
</svg>
