<svg width="24" height="24" viewBox="0 0 24 24" fill="none" xmlns="http://www.w3.org/2000/svg">
<path d="M17.5849 23.043C17.5741 23.168 17.5167 23.2844 17.4241 23.3691C17.3315 23.4537 17.2104 23.5005 17.0849 23.5H6.9129C6.78742 23.5005 6.66634 23.4537 6.57372 23.3691C6.4811 23.2844 6.42369 23.168 6.4129 23.043L4.4999 1.043C4.49393 0.973819 4.50243 0.904149 4.52487 0.838432C4.54731 0.772716 4.58319 0.712394 4.63023 0.66131C4.67727 0.610227 4.73443 0.569501 4.79808 0.541729C4.86172 0.513956 4.93046 0.499746 4.9999 0.500003H18.9999C19.0693 0.499746 19.1381 0.513956 19.2017 0.541729C19.2654 0.569501 19.3225 0.610227 19.3696 0.66131C19.4166 0.712394 19.4525 0.772716 19.4749 0.838432C19.4974 0.904149 19.5059 0.973819 19.4999 1.043L17.5849 23.043Z" stroke="#1A202C" stroke-linecap="round" stroke-linejoin="round"/>
<path d="M5.14941 8.5H18.8494" stroke="#1A202C" stroke-linecap="round" stroke-linejoin="round"/>
</svg>
