<svg width="24" height="24" viewBox="0 0 24 24" fill="none" xmlns="http://www.w3.org/2000/svg">
<path d="M5.00009 0.5C5.33156 0.831551 5.51776 1.28118 5.51776 1.75C5.51776 2.21882 5.33156 2.66845 5.00009 3C4.66863 3.33155 4.48242 3.78118 4.48242 4.25C4.48242 4.71882 4.66863 5.16845 5.00009 5.5" stroke="#1A202C" stroke-linecap="round" stroke-linejoin="round"/>
<path d="M9.50009 0.5C9.83156 0.831551 10.0178 1.28118 10.0178 1.75C10.0178 2.21882 9.83156 2.66845 9.50009 3C9.16863 3.33155 8.98242 3.78118 8.98242 4.25C8.98242 4.71882 9.16863 5.16845 9.50009 5.5" stroke="#1A202C" stroke-linecap="round" stroke-linejoin="round"/>
<path d="M14.0001 0.5C14.3316 0.831551 14.5178 1.28118 14.5178 1.75C14.5178 2.21882 14.3316 2.66845 14.0001 3C13.6686 3.33155 13.4824 3.78118 13.4824 4.25C13.4824 4.71882 13.6686 5.16845 14.0001 5.5" stroke="#1A202C" stroke-linecap="round" stroke-linejoin="round"/>
<path d="M17.5 15.5C17.5 17.6217 16.6571 19.6566 15.1569 21.1569C13.6566 22.6571 11.6217 23.5 9.5 23.5C7.37827 23.5 5.34344 22.6571 3.84315 21.1569C2.34285 19.6566 1.5 17.6217 1.5 15.5V9C1.5 8.86739 1.55268 8.74021 1.64645 8.64645C1.74021 8.55268 1.86739 8.5 2 8.5H17.5V15.5Z" stroke="#1A202C" stroke-linecap="round" stroke-linejoin="round"/>
<path d="M17.5 8.5H19C20.1935 8.5 21.338 8.97411 22.182 9.81802C23.0259 10.6619 23.5 11.8065 23.5 13C23.5 14.1935 23.0259 15.3381 22.182 16.182C21.338 17.0259 20.1935 17.5 19 17.5H17.251" stroke="#1A202C" stroke-linecap="round" stroke-linejoin="round"/>
<path d="M8.5 16C8.5 16.1326 8.44732 16.2598 8.35355 16.3536C8.25979 16.4473 8.13261 16.5 8 16.5H5C4.86739 16.5 4.74021 16.4473 4.64645 16.3536C4.55268 16.2598 4.5 16.1326 4.5 16V13.5C4.5 12.9696 4.71071 12.4609 5.08579 12.0858C5.46086 11.7107 5.96957 11.5 6.5 11.5C7.03043 11.5 7.53914 11.7107 7.91421 12.0858C8.28929 12.4609 8.5 12.9696 8.5 13.5V16Z" stroke="#1A202C" stroke-linecap="round" stroke-linejoin="round"/>
<path d="M6.5 11.5V7.5" stroke="#1A202C" stroke-linecap="round" stroke-linejoin="round"/>
<path d="M0.5 23.5H20.5" stroke="#1A202C" stroke-linecap="round" stroke-linejoin="round"/>
</svg>
