<svg width="24" height="24" viewBox="0 0 24 24" fill="none" xmlns="http://www.w3.org/2000/svg">
<g id="bathroom-shower 2">
<g id="Group">
<path id="Vector" d="M9 6.5V6C9 4.54131 9.57946 3.14236 10.6109 2.11091C11.6424 1.07946 13.0413 0.5 14.5 0.5C15.9587 0.5 17.3576 1.07946 18.3891 2.11091C19.4205 3.14236 20 4.54131 20 6V23.5" stroke="#1A202C" stroke-linecap="round" stroke-linejoin="round"/>
<path id="Vector_2" d="M13 10.5C13 9.43913 12.5786 8.42172 11.8284 7.67157C11.0783 6.92143 10.0609 6.5 9 6.5C7.93913 6.5 6.92172 6.92143 6.17157 7.67157C5.42143 8.42172 5 9.43913 5 10.5V11C5 11.1326 5.05268 11.2598 5.14645 11.3536C5.24021 11.4473 5.36739 11.5 5.5 11.5H12.5C12.6326 11.5 12.7598 11.4473 12.8536 11.3536C12.9473 11.2598 13 11.1326 13 11V10.5Z" stroke="#1A202C" stroke-linecap="round" stroke-linejoin="round"/>
<path id="Vector_3" d="M9 16.75V14.75" stroke="#1A202C" stroke-linecap="round" stroke-linejoin="round"/>
<path id="Vector_4" d="M9 22.75V20.75" stroke="#1A202C" stroke-linecap="round" stroke-linejoin="round"/>
<path id="Vector_5" d="M12.7045 16.4574L11.9395 14.6094" stroke="#1A202C" stroke-linecap="round" stroke-linejoin="round"/>
<path id="Vector_6" d="M15.0004 22.0003L14.2354 20.1523" stroke="#1A202C" stroke-linecap="round" stroke-linejoin="round"/>
<path id="Vector_7" d="M5.2959 16.4574L6.0609 14.6094" stroke="#1A202C" stroke-linecap="round" stroke-linejoin="round"/>
<path id="Vector_8" d="M3 22.0003L3.765 20.1523" stroke="#1A202C" stroke-linecap="round" stroke-linejoin="round"/>
</g>
</g>
</svg>
