<svg width="89" height="107" viewBox="0 0 89 107" fill="none" xmlns="http://www.w3.org/2000/svg">
<rect width="89" height="107" rx="8" fill="url(#paint0_linear_10321_129699)"/>
<path d="M7.66406 15H8.91895V9.01367H11.0234V7.9541H5.55469V9.01367H7.66406V15Z" fill="white"/>
<path d="M10.9355 15H12.1514V11.9678C12.1514 11.2402 12.5664 10.7959 13.2549 10.7959C13.46 10.7959 13.6455 10.8252 13.748 10.8643V9.76562C13.6553 9.74121 13.5137 9.7168 13.3623 9.7168C12.752 9.7168 12.2979 10.083 12.1416 10.6885H12.1172V9.82422H10.9355V15Z" fill="white"/>
<path d="M15.7842 15.0879C16.4678 15.0879 17.0439 14.7461 17.3418 14.2041H17.3711V15H18.5869V11.4404C18.5869 10.4004 17.752 9.7168 16.458 9.7168C15.1445 9.7168 14.3486 10.4053 14.2754 11.3232L14.2705 11.3818H15.3984L15.4082 11.3379C15.4863 10.957 15.8379 10.6885 16.4141 10.6885C17.0293 10.6885 17.3711 11.0059 17.3711 11.5283V11.8848L16.0186 11.9678C14.7637 12.0459 14.0508 12.5977 14.0508 13.5156V13.5254C14.0508 14.4482 14.749 15.0879 15.7842 15.0879ZM15.2617 13.4766V13.4717C15.2617 13.0615 15.5889 12.8027 16.1895 12.7637L17.3711 12.6904V13.0811C17.3711 13.6963 16.8438 14.1602 16.1455 14.1602C15.6133 14.1602 15.2617 13.9014 15.2617 13.4766Z" fill="white"/>
<path d="M20.9453 15H22.2832L24.1045 9.82422H22.835L21.6387 13.8721H21.6094L20.4082 9.82422H19.1143L20.9453 15Z" fill="white"/>
<path d="M26.7559 15.1025C28.1084 15.1025 28.8701 14.3018 29.0312 13.5059L29.0459 13.4521H27.9082L27.8984 13.4863C27.7812 13.833 27.3857 14.1553 26.7803 14.1553C25.9893 14.1553 25.4912 13.6182 25.4717 12.71H29.0947V12.3193C29.0947 10.7568 28.1768 9.7168 26.6973 9.7168C25.2178 9.7168 24.2656 10.791 24.2656 12.4219V12.4268C24.2656 14.0723 25.2031 15.1025 26.7559 15.1025ZM26.7119 10.6689C27.3564 10.6689 27.8252 11.0791 27.9131 11.8994H25.4863C25.584 11.1035 26.0674 10.6689 26.7119 10.6689Z" fill="white"/>
<path d="M29.915 15H31.1309V7.9541H29.915V15Z" fill="white"/>
<path d="M32.2002 15H33.416V7.9541H32.2002V15Z" fill="white"/>
<path d="M36.7266 15.1025C38.0791 15.1025 38.8408 14.3018 39.002 13.5059L39.0166 13.4521H37.8789L37.8691 13.4863C37.752 13.833 37.3564 14.1553 36.751 14.1553C35.96 14.1553 35.4619 13.6182 35.4424 12.71H39.0654V12.3193C39.0654 10.7568 38.1475 9.7168 36.668 9.7168C35.1885 9.7168 34.2363 10.791 34.2363 12.4219V12.4268C34.2363 14.0723 35.1738 15.1025 36.7266 15.1025ZM36.6826 10.6689C37.3271 10.6689 37.7959 11.0791 37.8838 11.8994H35.457C35.5547 11.1035 36.0381 10.6689 36.6826 10.6689Z" fill="white"/>
<path d="M39.8516 15H41.0674V11.9678C41.0674 11.2402 41.4824 10.7959 42.1709 10.7959C42.376 10.7959 42.5615 10.8252 42.6641 10.8643V9.76562C42.5713 9.74121 42.4297 9.7168 42.2783 9.7168C41.668 9.7168 41.2139 10.083 41.0576 10.6885H41.0332V9.82422H39.8516V15Z" fill="white"/>
<path d="M45.3105 15.1025C46.5801 15.1025 47.4834 14.4482 47.4834 13.4717V13.4668C47.4834 12.7148 47.0684 12.2949 45.999 12.0557L45.1348 11.8652C44.5977 11.7432 44.3975 11.5479 44.3975 11.25V11.2451C44.3975 10.8643 44.7344 10.6152 45.2715 10.6152C45.8379 10.6152 46.1699 10.918 46.2236 11.333L46.2285 11.3721H47.3613L47.3564 11.3184C47.3125 10.4248 46.5605 9.7168 45.2715 9.7168C44.0215 9.7168 43.1963 10.3564 43.1963 11.3037V11.3086C43.1963 12.0752 43.6943 12.5586 44.6855 12.7783L45.5449 12.9688C46.082 13.0908 46.2627 13.2666 46.2627 13.5791V13.584C46.2627 13.9648 45.9062 14.2041 45.3154 14.2041C44.7002 14.2041 44.3633 13.9404 44.2705 13.4961L44.2607 13.4521H43.0645L43.0693 13.4961C43.1768 14.458 43.9531 15.1025 45.3105 15.1025Z" fill="white"/>
<path d="M48.6504 10.6055H49.5146L49.6318 7.9541H48.5332L48.6504 10.6055Z" fill="white"/>
<path d="M56.0967 15.1221C57.7178 15.1221 58.9141 14.1211 59.0947 12.6758L59.1045 12.627H57.8691L57.8545 12.6758C57.625 13.5449 56.9951 14.0283 56.0967 14.0283C54.8711 14.0283 54.0801 13.042 54.0801 11.4746V11.4697C54.0801 9.90723 54.8662 8.92578 56.0967 8.92578C57.0146 8.92578 57.6348 9.42871 57.8398 10.2344L57.8643 10.3271H59.0996L59.0947 10.2783C58.9092 8.84277 57.7178 7.83203 56.0967 7.83203C54.0752 7.83203 52.791 9.21875 52.791 11.4697V11.4746C52.791 13.7256 54.0703 15.1221 56.0967 15.1221Z" fill="white"/>
<path d="M59.9736 15H61.1895V12.0166C61.1895 11.2646 61.6387 10.7422 62.3271 10.7422C63.0254 10.7422 63.4258 11.2207 63.4258 12.0166V15H64.6416V11.7773C64.6416 10.5273 63.9287 9.7168 62.8154 9.7168C62.0391 9.7168 61.4873 10.0732 61.2188 10.6934H61.1895V7.9541H59.9736V15Z" fill="white"/>
<path d="M67.9131 15.1025C69.4316 15.1025 70.418 14.0918 70.418 12.4121V12.4023C70.418 10.7324 69.417 9.7168 67.9082 9.7168C66.4043 9.7168 65.4082 10.7422 65.4082 12.4023V12.4121C65.4082 14.0869 66.3896 15.1025 67.9131 15.1025ZM67.918 14.1211C67.1416 14.1211 66.6484 13.501 66.6484 12.4121V12.4023C66.6484 11.3281 67.1514 10.7031 67.9082 10.7031C68.6797 10.7031 69.1777 11.3232 69.1777 12.4023V12.4121C69.1777 13.4961 68.6846 14.1211 67.918 14.1211Z" fill="white"/>
<path d="M71.8438 9.08203C72.2246 9.08203 72.5176 8.7793 72.5176 8.41797C72.5176 8.04688 72.2246 7.74902 71.8438 7.74902C71.4629 7.74902 71.165 8.04688 71.165 8.41797C71.165 8.7793 71.4629 9.08203 71.8438 9.08203ZM71.2334 15H72.4492V9.82422H71.2334V15Z" fill="white"/>
<path d="M75.7695 15.1025C77.0781 15.1025 77.9521 14.2822 78.0449 13.2031L78.0498 13.1689H76.9023L76.8926 13.2129C76.7803 13.7549 76.3896 14.1211 75.7744 14.1211C75.0078 14.1211 74.5098 13.4961 74.5098 12.417V12.4121C74.5098 11.3525 75.0029 10.7031 75.7695 10.7031C76.4141 10.7031 76.7852 11.1084 76.8877 11.6113L76.8975 11.6553H78.0449L78.04 11.6162C77.9668 10.5811 77.1172 9.7168 75.7549 9.7168C74.2461 9.7168 73.2695 10.752 73.2695 12.4023V12.4072C73.2695 14.0674 74.2314 15.1025 75.7695 15.1025Z" fill="white"/>
<path d="M81.0527 15.1025C82.4053 15.1025 83.167 14.3018 83.3281 13.5059L83.3428 13.4521H82.2051L82.1953 13.4863C82.0781 13.833 81.6826 14.1553 81.0771 14.1553C80.2861 14.1553 79.7881 13.6182 79.7686 12.71H83.3916V12.3193C83.3916 10.7568 82.4736 9.7168 80.9941 9.7168C79.5146 9.7168 78.5625 10.791 78.5625 12.4219V12.4268C78.5625 14.0723 79.5 15.1025 81.0527 15.1025ZM81.0088 10.6689C81.6533 10.6689 82.1221 11.0791 82.21 11.8994H79.7832C79.8809 11.1035 80.3643 10.6689 81.0088 10.6689Z" fill="white"/>
<ellipse opacity="0.5" cx="44.489" cy="47.8406" rx="29.9109" ry="29.9109" fill="url(#paint1_linear_10321_129699)"/>
<g clip-path="url(#clip0_10321_129699)">
<path d="M39.7141 73.8296C41.2506 75.0299 41.6536 77.0305 41.6536 77.0305C41.6536 77.0305 39.563 77.0806 38.0264 75.8802C36.4899 74.6798 36.0869 72.6793 36.0869 72.6793C36.0869 72.6793 38.1776 72.6292 39.7141 73.8296Z" fill="white"/>
<path d="M37.8496 76.9555C39.7136 76.3054 41.6531 77.0306 41.6531 77.0306C41.6531 77.0306 40.5952 78.7811 38.7312 79.4313C36.8673 80.0815 34.9277 79.3563 34.9277 79.3563C34.9277 79.3563 35.9857 77.5807 37.8496 76.9555Z" fill="white"/>
<path d="M33.7186 72.2041C35.0788 73.6045 35.2048 75.6301 35.2048 75.6301C35.2048 75.6301 33.1393 75.405 31.7791 74.0046C30.4189 72.6042 30.293 70.5786 30.293 70.5786C30.293 70.5786 32.3584 70.8037 33.7186 72.2041Z" fill="white"/>
<path d="M31.4263 75.0547C33.3658 74.6796 35.1794 75.6299 35.1794 75.6299C35.1794 75.6299 33.8948 77.2303 31.9553 77.6054C30.0157 77.9806 28.2021 77.0303 28.2021 77.0303C28.2021 77.0303 29.4868 75.4298 31.4263 75.0547Z" fill="white"/>
<path d="M28.9834 69.8783C30.0917 71.4788 29.8902 73.5044 29.8902 73.5044C29.8902 73.5044 27.8751 72.9542 26.7668 71.3788C25.6585 69.7783 25.86 67.7527 25.86 67.7527C25.86 67.7527 27.8751 68.3028 28.9834 69.8783Z" fill="white"/>
<path d="M26.263 72.3292C28.2277 72.2542 29.8901 73.4796 29.8901 73.4796C29.8901 73.4796 28.3536 74.855 26.3889 74.93C24.4242 75.005 22.7617 73.7797 22.7617 73.7797C22.7617 73.7797 24.2982 72.4293 26.263 72.3292Z" fill="white"/>
<path d="M24.5755 66.3523C25.2556 68.1529 24.5503 70.0784 24.5503 70.0784C24.5503 70.0784 22.7367 69.0781 22.0566 67.2776C21.3765 65.4771 22.0818 63.5515 22.0818 63.5515C22.0818 63.5515 23.8954 64.5518 24.5755 66.3523Z" fill="white"/>
<path d="M21.3264 68.0779C23.2659 68.478 24.5505 70.0535 24.5505 70.0535C24.5505 70.0535 22.7117 71.0288 20.7974 70.6286C18.8579 70.2285 17.5732 68.6531 17.5732 68.6531C17.5732 68.6531 19.412 67.7028 21.3264 68.0779Z" fill="white"/>
<path d="M21.2256 62.2512C21.4523 64.1517 20.3188 65.8522 20.3188 65.8522C20.3188 65.8522 18.8075 64.4518 18.5808 62.5513C18.3541 60.6507 19.4876 58.9502 19.4876 58.9502C19.4876 58.9502 20.9989 60.3506 21.2256 62.2512Z" fill="white"/>
<path d="M17.6736 63.2014C19.462 64.0266 20.3184 65.8771 20.3184 65.8771C20.3184 65.8771 18.3033 66.4023 16.5149 65.5771C14.7265 64.7518 13.8701 62.9013 13.8701 62.9013C13.8701 62.9013 15.8852 62.3761 17.6736 63.2014Z" fill="white"/>
<path d="M18.378 57.0995C18.2017 59.0251 16.7407 60.4505 16.7407 60.4505C16.7407 60.4505 15.5317 58.775 15.708 56.8744C15.8843 54.9489 17.3453 53.5234 17.3453 53.5234C17.3453 53.5234 18.5543 55.1739 18.378 57.0995Z" fill="white"/>
<path d="M14.7012 57.3249C16.2881 58.4753 16.7667 60.4509 16.7667 60.4509C16.7667 60.4509 14.676 60.5759 13.1143 59.4256C11.5274 58.2752 11.0488 56.2996 11.0488 56.2996C11.0488 56.2996 13.1143 56.1746 14.7012 57.3249Z" fill="white"/>
<path d="M16.9175 52.1984C16.4389 54.074 14.7512 55.2743 14.7512 55.2743C14.7512 55.2743 13.8445 53.4488 14.2978 51.5732C14.7764 49.6977 16.4641 48.4973 16.4641 48.4973C16.4641 48.4973 17.3961 50.3229 16.9175 52.1984Z" fill="white"/>
<path d="M13.2399 51.8482C14.6253 53.2236 14.7764 55.2492 14.7764 55.2492C14.7764 55.2492 12.711 55.0491 11.3256 53.6737C9.94019 52.2983 9.78906 50.2727 9.78906 50.2727C9.78906 50.2727 11.8545 50.4728 13.2399 51.8482Z" fill="white"/>
<path d="M16.7667 46.7218C15.8347 48.4223 13.9204 49.1976 13.9204 49.1976C13.9204 49.1976 13.4921 47.197 14.3989 45.4965C15.3309 43.796 17.2453 43.0208 17.2453 43.0208C17.2453 43.0208 17.6735 45.0213 16.7667 46.7218Z" fill="white"/>
<path d="M13.2655 45.4962C14.2479 47.1717 13.8952 49.1723 13.8952 49.1723C13.8952 49.1723 11.9305 48.4721 10.9481 46.8216C9.96578 45.1461 10.3184 43.1455 10.3184 43.1455C10.3184 43.1455 12.2831 43.8457 13.2655 45.4962Z" fill="white"/>
<path d="M17.7483 41.1948C16.4385 42.6452 14.373 42.9453 14.373 42.9453C14.373 42.9453 14.4234 40.9197 15.7332 39.4693C17.0431 38.0188 19.1085 37.7188 19.1085 37.7188C19.1085 37.7188 19.033 39.7443 17.7483 41.1948Z" fill="white"/>
<path d="M14.6504 39.2194C15.2045 41.07 14.3733 42.9205 14.3733 42.9205C14.3733 42.9205 12.6353 41.7952 12.0811 39.9696C11.527 38.1191 12.3582 36.2686 12.3582 36.2686C12.3582 36.2686 14.071 37.3689 14.6504 39.2194Z" fill="white"/>
<path d="M19.7635 36.6436C18.1514 37.7439 16.0859 37.5939 16.0859 37.5939C16.0859 37.5939 16.6149 35.6183 18.227 34.518C19.8391 33.4176 21.9045 33.5677 21.9045 33.5677C21.9045 33.5677 21.3504 35.5183 19.7635 36.6436Z" fill="white"/>
<path d="M17.1945 34.0177C17.3204 35.9433 16.061 37.5688 16.061 37.5688C16.061 37.5688 14.6252 36.0933 14.5245 34.1677C14.3985 32.2422 15.658 30.6167 15.658 30.6167C15.658 30.6167 17.0937 32.1171 17.1945 34.0177Z" fill="white"/>
<path d="M22.2832 32.5175C20.52 33.3677 18.5049 32.8926 18.5049 32.8926C18.5049 32.8926 19.3361 31.042 21.1245 30.1918C22.8877 29.3415 24.9028 29.8167 24.9028 29.8167C24.9028 29.8167 24.0464 31.6672 22.2832 32.5175Z" fill="white"/>
<path d="M20.1667 29.5664C19.9652 31.492 18.4791 32.8924 18.4791 32.8924C18.4791 32.8924 17.2952 31.2169 17.4967 29.2913C17.6982 27.3657 19.1844 25.9653 19.1844 25.9653C19.1844 25.9653 20.3682 27.6408 20.1667 29.5664Z" fill="white"/>
<path d="M50.3936 73.5544C48.8571 74.7548 48.4541 76.7554 48.4541 76.7554C48.4541 76.7554 50.5448 76.8054 52.0813 75.605C53.6178 74.4047 54.0208 72.4041 54.0208 72.4041C54.0208 72.4041 51.9301 72.3541 50.3936 73.5544Z" fill="white"/>
<path d="M52.2576 76.6804C50.3936 76.0302 48.4541 76.7554 48.4541 76.7554C48.4541 76.7554 49.512 78.5059 51.376 79.1561C53.24 79.8063 55.1795 79.0811 55.1795 79.0811C55.1795 79.0811 54.1216 77.3306 52.2576 76.6804Z" fill="white"/>
<path d="M55.6326 72.2038C54.2724 73.6043 54.1465 75.6299 54.1465 75.6299C54.1465 75.6299 56.212 75.4048 57.5722 74.0044C58.9323 72.604 59.0583 70.5784 59.0583 70.5784C59.0583 70.5784 56.9928 70.8034 55.6326 72.2038Z" fill="white"/>
<path d="M57.925 75.0549C55.9855 74.6798 54.1719 75.6301 54.1719 75.6301C54.1719 75.6301 55.4565 77.2306 57.396 77.6057C59.3356 77.9808 61.1492 77.0305 61.1492 77.0305C61.1492 77.0305 59.8393 75.43 57.925 75.0549Z" fill="white"/>
<path d="M60.343 69.7033C59.2347 71.3037 59.4362 73.3293 59.4362 73.3293C59.4362 73.3293 61.4513 72.7792 62.5596 71.2037C63.6679 69.6032 63.4664 67.5776 63.4664 67.5776C63.4664 67.5776 61.4765 68.1028 60.343 69.7033Z" fill="white"/>
<path d="M63.0637 72.1539C61.099 72.0789 59.4365 73.3043 59.4365 73.3043C59.4365 73.3043 60.973 74.6797 62.9378 74.7547C64.9025 74.8297 66.5649 73.6044 66.5649 73.6044C66.5649 73.6044 65.0284 72.229 63.0637 72.1539Z" fill="white"/>
<path d="M64.625 66.2522C63.9449 68.0528 64.6502 69.9783 64.6502 69.9783C64.6502 69.9783 66.4637 68.978 67.1438 67.1775C67.8239 65.377 67.1187 63.4514 67.1187 63.4514C67.1187 63.4514 65.3051 64.4517 64.625 66.2522Z" fill="white"/>
<path d="M67.8492 67.9778C65.9096 68.3779 64.625 69.9534 64.625 69.9534C64.625 69.9534 66.4638 70.9287 68.3781 70.5285C70.2925 70.1284 71.6023 68.553 71.6023 68.553C71.6023 68.553 69.7887 67.6027 67.8492 67.9778Z" fill="white"/>
<path d="M68.1267 61.8759C67.9 63.7765 69.0334 65.477 69.0334 65.477C69.0334 65.477 70.5448 64.0766 70.7715 62.176C70.9982 60.2755 69.8647 58.575 69.8647 58.575C69.8647 58.575 68.3785 59.9754 68.1267 61.8759Z" fill="white"/>
<path d="M71.7034 62.8261C69.915 63.6513 69.0586 65.5019 69.0586 65.5019C69.0586 65.5019 71.0737 66.027 72.8621 65.2018C74.6505 64.3766 75.5069 62.526 75.5069 62.526C75.5069 62.526 73.4918 62.0009 71.7034 62.8261Z" fill="white"/>
<path d="M70.6699 57.0001C70.8462 58.9257 72.3072 60.3511 72.3072 60.3511C72.3072 60.3511 73.5163 58.6756 73.3399 56.7751C73.1636 54.8495 71.7027 53.4241 71.7027 53.4241C71.7027 53.4241 70.4936 55.0996 70.6699 57.0001Z" fill="white"/>
<path d="M74.3477 57.25C72.7608 58.4003 72.2822 60.3759 72.2822 60.3759C72.2822 60.3759 74.3729 60.5009 75.9346 59.3506C77.5215 58.2003 78.0001 56.2247 78.0001 56.2247C78.0001 56.2247 75.9346 56.0997 74.3477 57.25Z" fill="white"/>
<path d="M72.1308 52.0736C72.6094 53.9492 74.297 55.1496 74.297 55.1496C74.297 55.1496 75.2038 53.324 74.7504 51.4485C74.2719 49.5729 72.5842 48.3726 72.5842 48.3726C72.5842 48.3726 71.6522 50.2231 72.1308 52.0736Z" fill="white"/>
<path d="M75.809 51.7483C74.4488 53.1237 74.2725 55.1493 74.2725 55.1493C74.2725 55.1493 76.3379 54.9493 77.7233 53.5739C79.1087 52.1984 79.2598 50.1729 79.2598 50.1729C79.2598 50.1729 77.1944 50.3729 75.809 51.7483Z" fill="white"/>
<path d="M72.2573 46.7968C73.1893 48.4973 75.1037 49.2725 75.1037 49.2725C75.1037 49.2725 75.5319 47.2719 74.6251 45.5714C73.6931 43.8709 71.7788 43.0957 71.7788 43.0957C71.7788 43.0957 71.3505 45.0963 72.2573 46.7968Z" fill="white"/>
<path d="M75.7587 45.5965C74.7763 47.272 75.129 49.2726 75.129 49.2726C75.129 49.2726 77.0937 48.5724 78.076 46.9219C79.0584 45.2464 78.7058 43.2458 78.7058 43.2458C78.7058 43.2458 76.741 43.921 75.7587 45.5965Z" fill="white"/>
<path d="M71.2244 41.2705C72.5343 42.7209 74.5997 43.021 74.5997 43.021C74.5997 43.021 74.5494 40.9954 73.2395 39.5449C71.9297 38.0945 69.8643 37.7944 69.8643 37.7944C69.8643 37.7944 69.9398 39.82 71.2244 41.2705Z" fill="white"/>
<path d="M74.3223 39.2947C73.7682 41.1453 74.5994 42.9958 74.5994 42.9958C74.5994 42.9958 76.3374 41.8705 76.8916 40.0199C77.4457 38.1694 76.6145 36.3188 76.6145 36.3188C76.6145 36.3188 74.9017 37.4442 74.3223 39.2947Z" fill="white"/>
<path d="M69.2846 36.794C70.8967 37.8943 72.9622 37.7443 72.9622 37.7443C72.9622 37.7443 72.4332 35.7687 70.8211 34.6684C69.209 33.568 67.1436 33.7181 67.1436 33.7181C67.1436 33.7181 67.6725 35.6686 69.2846 36.794Z" fill="white"/>
<path d="M71.8292 34.193C71.7032 36.1186 72.9627 37.744 72.9627 37.744C72.9627 37.744 74.3984 36.2686 74.4992 34.343C74.6251 32.4175 73.3657 30.792 73.3657 30.792C73.3657 30.792 71.9551 32.2674 71.8292 34.193Z" fill="white"/>
<path d="M66.6147 32.7174C68.3779 33.5677 70.393 33.0925 70.393 33.0925C70.393 33.0925 69.5618 31.242 67.7734 30.3917C66.0102 29.5415 63.9951 30.0166 63.9951 30.0166C63.9951 30.0166 64.8515 31.8672 66.6147 32.7174Z" fill="white"/>
<path d="M68.7057 29.7417C68.9072 31.6673 70.3933 33.0677 70.3933 33.0677C70.3933 33.0677 71.5772 31.3922 71.3757 29.4666C71.1742 27.541 69.6881 26.1406 69.6881 26.1406C69.6881 26.1406 68.5042 27.8161 68.7057 29.7417Z" fill="white"/>
<path d="M65.1795 26.8408C65.1039 26.9158 65.0031 27.0159 64.9024 27.0909C64.8772 27.1159 64.852 27.1409 64.8016 27.1409C70.9729 32.3675 74.8771 39.9197 74.8771 48.2971C74.8771 64.0018 61.25 76.8056 44.4743 76.8056C27.7238 76.8056 14.0716 64.0268 14.0716 48.2971C14.0967 40.2948 17.6484 33.0426 23.341 27.8411C23.1899 27.7911 23.0136 27.7411 22.8624 27.6411C17.1446 32.8926 13.6182 40.2198 13.6182 48.2971C13.6182 64.2519 27.472 77.2557 44.4995 77.2557C61.5271 77.2557 75.3809 64.2769 75.3809 48.2971C75.3809 39.7946 71.4263 32.1424 65.1795 26.8408Z" fill="white"/>
<path d="M26.3633 28.8913C24.4489 29.2914 22.585 28.3411 22.585 28.3411C22.585 28.3411 23.8696 26.7406 25.7839 26.3405C27.6983 25.9404 29.5622 26.8907 29.5622 26.8907C29.5622 26.8907 28.3028 28.4911 26.3633 28.8913Z" fill="white"/>
<path d="M25.0781 25.5154C24.4232 27.3159 22.6096 28.3412 22.6096 28.3412C22.6096 28.3412 21.8792 26.4407 22.5593 24.6151C23.2142 22.8146 25.0026 21.7893 25.0026 21.7893C25.0026 21.7893 25.733 23.6899 25.0781 25.5154Z" fill="white"/>
<path d="M62.7361 28.8913C64.6504 29.2914 66.5144 28.3411 66.5144 28.3411C66.5144 28.3411 65.2298 26.7406 63.3154 26.3405C61.4011 25.9404 59.5371 26.8907 59.5371 26.8907C59.5371 26.8907 60.7965 28.4911 62.7361 28.8913Z" fill="white"/>
<path d="M64.0207 25.5154C64.6756 27.3159 66.4892 28.3412 66.4892 28.3412C66.4892 28.3412 67.2197 26.4407 66.5396 24.6151C65.8847 22.8146 64.0963 21.7893 64.0963 21.7893C64.0963 21.7893 63.3658 23.6899 64.0207 25.5154Z" fill="white"/>
</g>
<path fill-rule="evenodd" clip-rule="evenodd" d="M37.8376 45.805C37.9135 45.5704 37.9828 45.3291 38.0718 45.0946C38.6062 43.6803 39.2163 42.2996 39.9947 41.006C40.5093 40.1481 41.037 39.2901 41.6274 38.4825C42.4421 37.3698 43.3557 36.3343 44.4408 35.4764C44.9059 35.1111 45.3874 34.7659 45.8624 34.4106C45.8954 34.3838 45.9218 34.3503 45.9284 34.2665C45.8657 34.2934 45.7931 34.3101 45.7371 34.347C44.8663 34.977 43.9758 35.5735 43.138 36.2472C41.7131 37.3899 40.3872 38.6534 39.2196 40.0676C38.5171 40.9155 37.8772 41.8203 37.2506 42.7285C36.9372 43.1776 36.7162 43.6937 36.4359 44.2065C34.5492 42.3733 32.3328 42.0415 29.8228 42.8157C31.2905 38.8612 33.7643 35.8416 37.3165 33.7672C43.0226 30.4394 50.2096 30.6002 55.8332 34.7491C60.8301 38.4355 63.2477 44.6756 62.7596 50.0344C60.7608 48.6838 58.6664 48.4056 56.4301 49.468C56.5159 47.8057 56.2586 46.2206 55.9123 44.6455C55.5627 43.0603 55.0976 41.512 54.4776 40.0106C53.8707 38.5461 53.1945 37.1252 52.3699 35.778C52.3403 35.7947 52.3073 35.8115 52.2776 35.8282C52.4557 36.1768 52.6404 36.5186 52.8086 36.8738C53.5013 38.3384 53.9135 39.89 54.184 41.4852C54.4479 43.0369 54.6161 44.5986 54.6788 46.1703C54.7249 47.3399 54.6853 48.5062 54.5171 49.6657C54.5006 49.7864 54.4874 49.907 54.471 50.0612C52.3666 47.7052 49.8599 46.0832 46.8222 45.3358C43.7944 44.5919 40.8193 44.7661 37.8937 45.8586C37.8739 45.8385 37.8541 45.8218 37.8376 45.805Z" fill="white"/>
<path fill-rule="evenodd" clip-rule="evenodd" d="M45.0213 54.4044H45.0147C45.5491 52.0317 46.0867 49.6624 46.6144 47.2863C46.6342 47.1925 46.588 47.0249 46.5254 46.9679C46.1164 46.6127 45.648 46.4552 45.1236 46.5222C44.9818 46.539 44.9092 46.606 44.8795 46.7668C44.8037 47.1556 44.7278 47.5477 44.642 47.9331C44.1506 50.1114 43.6591 52.2898 43.1644 54.4681L43.1743 54.4715C42.64 56.8442 42.1024 59.2135 41.5746 61.5896C41.5548 61.6834 41.601 61.851 41.6637 61.908C42.0727 62.2632 42.541 62.4241 43.0655 62.3537C43.2073 62.3369 43.2798 62.2699 43.3095 62.1124C43.3854 61.7236 43.4612 61.3315 43.547 60.9428C44.0319 58.7611 44.5233 56.5828 45.0213 54.4044Z" fill="white"/>
<path fill-rule="evenodd" clip-rule="evenodd" d="M55.312 65.7519C55.312 65.7519 41.3932 54.8032 24.3839 64.9074C24.3839 64.9074 23.9155 65.3196 24.595 65.343C24.595 65.343 39.0943 57.9266 55.1108 66.1708C55.1075 66.1708 55.5957 66.2311 55.312 65.7519Z" fill="white"/>
<path d="M24 89.1143V89.1582H26.4609V89.1055C26.4609 87.9365 27.3047 87.1279 28.5352 87.1279C29.6953 87.1279 30.5215 87.8486 30.5215 88.8682C30.5215 89.6943 30.0732 90.3535 28.2891 92.0938L24.1494 96.1455V98H33.2988V95.7939H27.7441V95.6357L30.1699 93.3242C32.3672 91.2588 33.1143 90.0723 33.1143 88.6924C33.1143 86.5127 31.2686 84.9922 28.623 84.9922C25.8809 84.9922 24 86.6621 24 89.1143Z" fill="white"/>
<path d="M40.6113 98.3252C43.749 98.3252 45.6475 95.8379 45.6475 91.6455C45.6475 87.4355 43.7227 84.9922 40.6113 84.9922C37.4912 84.9922 35.5752 87.4355 35.5752 91.6367C35.5752 95.8467 37.4736 98.3252 40.6113 98.3252ZM40.6113 96.1631C39.1611 96.1631 38.2646 94.5986 38.2646 91.6367C38.2646 88.6924 39.1699 87.1631 40.6113 87.1631C42.0615 87.1631 42.958 88.6836 42.958 91.6367C42.958 94.6074 42.0703 96.1631 40.6113 96.1631Z" fill="white"/>
<path d="M47.9062 89.1143V89.1582H50.3672V89.1055C50.3672 87.9365 51.2109 87.1279 52.4414 87.1279C53.6016 87.1279 54.4277 87.8486 54.4277 88.8682C54.4277 89.6943 53.9795 90.3535 52.1953 92.0938L48.0557 96.1455V98H57.2051V95.7939H51.6504V95.6357L54.0762 93.3242C56.2734 91.2588 57.0205 90.0723 57.0205 88.6924C57.0205 86.5127 55.1748 84.9922 52.5293 84.9922C49.7871 84.9922 47.9062 86.6621 47.9062 89.1143Z" fill="white"/>
<path d="M62.707 98H65.3613V85.3174H62.7158L59.4375 87.5762V90.0459L62.5488 87.9014H62.707V98Z" fill="white"/>
<defs>
<linearGradient id="paint0_linear_10321_129699" x1="42.381" y1="4.12963" x2="42.381" y2="94.6111" gradientUnits="userSpaceOnUse">
<stop stop-color="#FF3366"/>
<stop offset="1" stop-color="#FF33AD"/>
</linearGradient>
<linearGradient id="paint1_linear_10321_129699" x1="44.489" y1="17.9297" x2="44.489" y2="77.7515" gradientUnits="userSpaceOnUse">
<stop stop-color="#BD2047" stop-opacity="0"/>
<stop offset="1" stop-color="#BD2047"/>
</linearGradient>
<clipPath id="clip0_10321_129699">
<rect width="69.4705" height="57.8921" fill="white" transform="translate(9.78906 21.7893)"/>
</clipPath>
</defs>
</svg>
