<svg width="192" height="170" viewBox="0 0 192 170" fill="none" xmlns="http://www.w3.org/2000/svg">
<path d="M49.3289 167.125C45.2828 166.255 -3.40308 158.467 0.189271 100.976C3.76272 43.4862 8.26262 26.2071 27.1887 19.8739C46.1147 13.5407 92.0969 -16.3859 128.191 12.085C164.284 40.556 203.233 66.0588 187.767 111.506C172.32 156.935 169.786 172.097 129.476 169.772C89.1663 167.446 68.5764 171.227 49.3289 167.125Z" fill="#F7FAFC"/>
<g clip-path="url(#clip0)">
<path d="M97.5372 129.504C97.4123 132.384 95.2286 135.212 92.2063 134.327C89.9263 133.658 88.5704 131.484 88.4669 129.093C88.4562 128.857 86.9861 129.097 87.0003 129.504C87.3358 137.308 98.6826 136.467 99.0002 129.093C99.0109 128.899 97.5551 129.074 97.5372 129.504Z" fill="#4A5568"/>
<path d="M129.166 101.404C123.43 77.9228 123.873 47.5093 93.2987 47.5093C62.4833 47.5093 63.1676 77.9228 57.4317 101.404C54.8353 112.039 47.7926 112.805 47.7926 118.848C47.7926 123.618 70.3239 127.49 93.2987 127.49C116.274 127.49 138.805 123.622 138.805 118.848C138.805 112.805 131.762 112.036 129.166 101.404Z" fill="#CBD5E0"/>
<path d="M93.6495 134.412H92.9067C90.3104 134.412 88.2024 132.311 88.2024 129.717V112.427C88.2024 109.836 90.3069 107.732 92.9067 107.732H93.6495C96.2458 107.732 98.3538 109.833 98.3538 112.427V129.717C98.3538 132.311 96.2493 134.412 93.6495 134.412Z" fill="#E2E8F0"/>
<path d="M93.6701 61.7482H92.9273C90.331 61.7482 88.223 59.6479 88.223 57.0534V39.7635C88.223 37.1724 90.3276 35.0687 92.9273 35.0687H93.6701C96.2664 35.0687 98.3745 37.169 98.3745 39.7635V57.0534C98.3745 59.6479 96.2664 61.7482 93.6701 61.7482Z" fill="#E2E8F0"/>
<path d="M123.444 102.251C121.456 94.183 120.534 85.9808 118.842 77.8369C117.553 71.6286 115.827 65.2796 112.322 59.9122C106.934 51.655 97.8965 48.4084 88.3124 48.4084C75.1486 48.4084 66.297 61.1133 63.6009 71.7076C62.0363 77.8541 61.3348 84.3438 59.9076 90.5041C58.6146 96.0912 57.5383 102.461 54.8766 107.358C53.0781 110.666 46.1076 115.275 48.1124 119.088C48.9618 120.701 52.3181 121.168 53.8587 121.539C57.3835 122.383 60.984 122.918 64.5707 123.399C75.0729 124.816 85.6886 125.605 96.2905 125.159C106.236 124.741 116.463 123.584 125.617 119.418C131.769 116.617 125.662 110.1 124.458 106.009C124.09 104.757 123.753 103.508 123.444 102.251Z" fill="#E2E8F0"/>
<path d="M87.4906 112.935C83.2952 112.599 79.4437 111.281 76.5688 107.911C72.6589 103.332 72.5213 96.5545 73.5117 90.8987C74.0997 87.5458 75.2449 84.3198 76.5619 81.1899C77.7002 78.4821 79.485 75.6165 79.2236 72.5587C79.0929 71.0281 78.1472 69.4631 76.6582 69.0719C75.5303 68.7767 74.3061 69.2092 73.3982 69.947C69.9353 72.7612 68.1781 78.767 66.947 82.8715C65.623 87.2884 64.894 91.8837 64.8046 96.4927C64.7427 99.5437 64.0583 102.752 62.669 105.553C61.1697 108.573 58.4496 110.227 56.6855 112.942C54.2542 116.686 63.4428 117.822 65.4167 118.217C72.3838 119.613 79.3096 119.833 86.3833 119.915C88.2609 119.939 90.2726 119.922 91.8269 118.869C93.7286 117.578 94.1206 114.819 91.9404 113.642C91.0085 113.141 89.9184 113.038 88.8592 113.004C88.3984 112.997 87.9411 112.973 87.4906 112.935Z" fill="#EDF2F7"/>
<path d="M124.004 79.7863C125.142 84.9959 126.047 90.2536 127.109 95.4769C128.007 99.8972 128.805 104.444 131.284 108.302C132.732 110.553 134.702 112.321 136.346 114.411C137.422 115.78 138.932 118.423 137.656 120.087C136.27 121.899 133.076 122.633 131.03 123.207C126.996 124.339 122.835 125.026 118.684 125.575C108.179 126.968 97.5182 127.366 86.93 127.03C77.315 126.724 67.4834 125.976 58.1057 123.718C55.3959 123.066 52.3284 122.345 50.0038 120.729C48.3015 119.545 48.2121 118.066 48.9962 116.171C49.9969 113.748 52.2837 111.988 53.8931 109.984C56.1558 107.169 57.5073 103.971 58.3326 100.477C59.9661 93.5722 61.0218 86.5506 62.5211 79.6181C64.0927 72.3494 66.0838 64.7855 70.3995 58.6012C72.4972 55.5949 75.1657 53.0038 78.3742 51.202C81.421 49.4895 84.7085 48.7036 88.1164 48.0927C88.364 48.0481 88.9348 47.9143 88.9348 47.5711C88.9348 44.0054 87.5731 33.792 94.1412 35.5904C97.274 36.4483 97.6764 39.3243 97.6764 42.0423C97.6764 43.9916 97.6764 45.9444 97.6764 47.8937C97.7004 47.9555 97.7451 47.9966 97.8139 48.0138C99.6674 48.4565 101.521 48.8958 103.378 49.3385C103.756 49.4277 105.011 48.834 104.52 48.7173C103.426 48.4565 102.333 48.1957 101.239 47.9383C100.641 47.7942 100.032 47.6706 99.437 47.5093C98.8903 47.3617 99.1688 47.578 99.0932 47.2897C98.8181 46.2635 99.0932 44.7878 99.0932 43.7308C99.0932 42.5262 99.1275 41.3148 99.0932 40.1102C98.88 32.6938 87.6625 33.3836 87.5284 40.4877C87.4837 42.9724 87.5284 45.4639 87.5284 47.9486C87.8 47.7736 88.0751 47.602 88.3468 47.427C82.2669 48.5217 76.6788 50.4813 72.2083 54.9188C67.3527 59.744 64.691 66.3195 62.8547 72.7887C60.7845 80.0849 59.6463 87.6041 58.1607 95.0308C57.3698 98.9809 56.7026 103.151 54.7838 106.74C53.2363 109.637 50.8463 111.713 48.869 114.277C47.8029 115.656 46.4377 118.086 47.3249 119.854C48.2087 121.618 50.891 122.482 52.5898 123.076C61.0665 126.034 70.482 126.807 79.3749 127.383C90.4411 128.101 101.573 127.96 112.615 126.899C117.377 126.443 122.137 125.815 126.824 124.837C129.97 124.181 133.2 123.416 136.116 122.023C137.464 121.377 139.365 120.399 139.52 118.718C139.74 116.291 138.017 114.194 136.501 112.523C134.032 109.802 131.838 107.097 130.593 103.583C128.784 98.4764 128.086 92.8618 127.075 87.5561C126.556 84.8312 126.023 82.1097 125.431 79.4019C125.328 79.0072 123.908 79.3539 124.004 79.7863Z" fill="#4A5568"/>
<path d="M129.871 101.215C127.949 93.2908 126.8 85.2052 124.926 77.2741C123.238 70.1324 120.972 62.7538 116.329 56.923C114.176 54.2152 111.504 51.9673 108.43 50.3646C106.721 49.4723 104.909 48.7963 103.045 48.3021C102.237 48.0893 101.422 47.904 100.6 47.7564C100.5 47.7392 99.0696 47.6088 99.0764 47.6226C99.0249 47.5642 99.1005 47.3137 99.0764 47.245C98.7257 46.2532 99.0764 44.4927 99.0764 43.4425C99.0764 42.0629 99.0971 40.6833 99.0764 39.3071C99.0249 35.858 96.4732 34.7186 93.4264 34.7186C90.1183 34.7186 87.5426 36.2836 87.5116 39.8459C87.4876 42.5674 87.5116 45.2889 87.5116 48.0069C87.7833 47.8319 88.055 47.6534 88.3266 47.4784C82.1058 48.2986 76.2529 50.725 71.8443 55.2791C67.5904 59.6719 65.0732 65.4444 63.3057 71.2134C61.2939 77.7683 60.1488 84.5497 58.873 91.2763C57.5387 98.3151 56.5655 105.546 51.6618 111.113C49.6088 113.443 44.5743 118.227 48.4946 121.134C50.5579 122.664 53.2711 123.395 55.7127 124.041C59.4232 125.019 63.2197 125.671 67.023 126.189C77.1607 127.572 87.4566 128.025 97.6803 127.798C107.226 127.586 116.876 126.872 126.247 124.977C129.582 124.305 133.018 123.526 136.102 122.047C137.505 121.374 139.366 120.399 139.507 118.663C139.73 115.917 137.53 113.683 135.838 111.833C132.973 108.693 130.934 105.361 129.871 101.215C129.765 100.793 128.348 101.16 128.458 101.593C129.304 104.904 130.748 107.907 132.928 110.55C134.445 112.389 136.477 114.019 137.488 116.219C138.293 117.966 138.455 119.668 136.79 120.852C134.679 122.352 131.876 123.014 129.407 123.629C120.775 125.774 111.735 126.532 102.873 126.927C92.9553 127.366 82.993 127.129 73.1167 126.11C66.1014 125.386 58.4088 124.631 51.8887 121.745C50.582 121.165 48.6493 120.289 48.498 118.659C48.2745 116.25 50.1384 114.188 51.6308 112.554C53.5531 110.45 55.3516 108.322 56.5827 105.731C58.0236 102.698 58.6323 99.3138 59.3063 96.0466C60.6165 89.6873 61.6275 83.2662 63.1234 76.9447C64.6571 70.455 66.6757 63.8005 70.6063 58.3163C74.8223 52.4341 80.9778 49.1017 88.1134 48.1579C88.3713 48.1236 88.9284 47.9692 88.9284 47.6294C88.9284 45.4776 88.9284 43.3258 88.9284 41.174C88.9284 40.3092 88.8459 39.3929 88.9525 38.5315C89.2586 36.0433 91.4285 35.3638 93.6052 35.4325C95.9161 35.5045 97.5496 36.9459 97.67 39.2933C97.7078 40.0415 97.67 40.8034 97.67 41.555C97.67 43.7102 97.67 45.862 97.67 48.0172C97.67 48.1167 97.8763 48.1682 97.9347 48.1751C106.755 49.3591 113.747 54.1912 117.99 61.9816C122.137 69.5867 123.802 78.3483 125.421 86.7633C126.374 91.719 127.271 96.6918 128.461 101.599C128.561 102.011 129.978 101.651 129.871 101.215Z" fill="#4A5568"/>
<path d="M131.321 73.0849C140.357 71.4914 146.389 62.8888 144.792 53.8706C143.195 44.8523 134.575 38.8334 125.539 40.427C116.502 42.0205 110.471 50.6231 112.068 59.6413C113.665 68.6596 122.284 74.6785 131.321 73.0849Z" fill="url(#paint0_linear)"/>
<path d="M128.825 63.3154C131.84 63.3154 133.668 60.7578 133.668 56.662V56.6445C133.668 52.5488 131.84 49.9999 128.825 49.9999C125.811 49.9999 124 52.5488 124 56.6445V56.662C124 60.7578 125.811 63.3154 128.825 63.3154ZM128.825 61.4785C127.208 61.4785 126.285 59.6679 126.285 56.662V56.6445C126.285 53.6386 127.208 51.8456 128.825 51.8456C130.443 51.8456 131.383 53.6386 131.383 56.6445V56.662C131.383 59.6679 130.443 61.4785 128.825 61.4785Z" fill="white"/>
</g>
<defs>
<linearGradient id="paint0_linear" x1="125.539" y1="40.427" x2="131.298" y2="73.0889" gradientUnits="userSpaceOnUse">
<stop stop-color="#FEA6D0"/>
<stop offset="1" stop-color="#FF7EBC"/>
</linearGradient>
<clipPath id="clip0">
<rect width="100.683" height="101" fill="white" transform="translate(47.0001 33.9999)"/>
</clipPath>
</defs>
</svg>
